<svg width="32" height="32" viewBox="0 0 32 32" fill="none" xmlns="http://www.w3.org/2000/svg">
  <rect width="32" height="32" rx="6" fill="#0A0C10" />
  <defs>
    <linearGradient id="fp-main" x1="24" y1="4" x2="24" y2="28" gradientUnits="userSpaceOnUse">
      <stop offset="0%" stop-color="#E8934A" />
      <stop offset="100%" stop-color="#A05C28" />
    </linearGradient>
    <linearGradient id="fp-mid" x1="16" y1="6" x2="16" y2="28" gradientUnits="userSpaceOnUse">
      <stop offset="0%" stop-color="#5BAEFF" />
      <stop offset="100%" stop-color="#2A6099" />
    </linearGradient>
    <linearGradient id="fp-left" x1="7" y1="12" x2="7" y2="28" gradientUnits="userSpaceOnUse">
      <stop offset="0%" stop-color="#3A4560" />
      <stop offset="100%" stop-color="#1C2130" />
    </linearGradient>
  </defs>
  <polygon points="0,28 7,14 14,28" fill="url(#fp-left)" />
  <polygon points="6,28 16,6 26,28" fill="url(#fp-mid)" />
  <polygon points="16,6 26,28 21,28" fill="rgba(0,0,0,0.15)" />
  <polygon points="18,28 26,2 32,14" fill="url(#fp-main)" />
  <polygon points="26,2 32,14 32,28 29,28" fill="rgba(0,0,0,0.12)" />
  <polygon points="26,2 23,8 29,8" fill="rgba(255,255,255,0.75)" />
  <polygon points="16,6 14,10 18,10" fill="rgba(255,255,255,0.5)" />
</svg>
