<svg width="32" height="32" viewBox="0 0 32 32" fill="none" xmlns="http://www.w3.org/2000/svg">
  <rect width="32" height="32" rx="7" fill="#0A0C10" />
  <g transform="translate(1, 3) scale(0.625)">
    <ellipse cx="40" cy="8" rx="7" ry="7" fill="#F5C842" opacity="0.12" />
    <ellipse cx="40" cy="8" rx="4" ry="4" fill="#F5C842" opacity="0.9" />
    <polygon points="0,36 10,16 20,36" fill="#2A3A52" />
    <polygon points="6,36 10,16 14,36" fill="#1A2840" />
    <polygon points="10,36 22,6 34,36" fill="#3D6B9A" />
    <polygon points="22,6 34,36 28,36" fill="#2A5080" />
    <polygon points="22,6 20,11 24,11" fill="rgba(255,255,255,0.85)" />
    <polygon points="27,36 38,3 48,18" fill="#C07830" />
    <polygon points="38,3 48,18 48,36 44,36" fill="#8A5220" />
    <polygon points="38,3 35,9 41,9" fill="rgba(255,255,255,0.9)" />
  </g>
</svg>
